<svg width="69" height="69" viewBox="0 0 69 69" fill="none" xmlns="http://www.w3.org/2000/svg">
<path fill-rule="evenodd" clip-rule="evenodd" d="M34.5 69C53.5538 69 69 53.5538 69 34.5C69 15.4462 53.5538 0 34.5 0C15.4462 0 0 15.4462 0 34.5C0 53.5538 15.4462 69 34.5 69Z" fill="#FEDC5A" fill-opacity="0.1"/>
<path d="M31 36.333C30.12 36.773 29.3867 37.4263 28.84 38.2397C28.5333 38.7063 28.5333 39.293 28.84 39.7597C29.3867 40.573 30.12 41.2263 31 41.6663" stroke="#FEDC5A" stroke-width="2" stroke-linecap="round" stroke-linejoin="round"/>
<path d="M39.2799 36.333C40.1599 36.773 40.8932 37.4263 41.4399 38.2397C41.7466 38.7063 41.7466 39.293 41.4399 39.7597C40.8932 40.573 40.1599 41.2263 39.2799 41.6663" stroke="#FEDC5A" stroke-width="2" stroke-linecap="round" stroke-linejoin="round"/>
<path d="M31 48.3337H39C45.6666 48.3337 48.3333 45.667 48.3333 39.0003V31.0003C48.3333 24.3337 45.6666 21.667 39 21.667H31C24.3333 21.667 21.6666 24.3337 21.6666 31.0003V39.0003C21.6666 45.667 24.3333 48.3337 31 48.3337Z" stroke="#FEDC5A" stroke-width="2" stroke-linecap="round" stroke-linejoin="round"/>
<path d="M21.9733 29.6803L47.5999 29.667" stroke="#FEDC5A" stroke-width="2" stroke-linecap="round" stroke-linejoin="round"/>
</svg>
