<svg width="69" height="69" viewBox="0 0 69 69" fill="none" xmlns="http://www.w3.org/2000/svg">
<path fill-rule="evenodd" clip-rule="evenodd" d="M34.5 69C53.5538 69 69 53.5538 69 34.5C69 15.4462 53.5538 0 34.5 0C15.4462 0 0 15.4462 0 34.5C0 53.5538 15.4462 69 34.5 69Z" fill="#FEDC5A" fill-opacity="0.1"/>
<path d="M42.2 43.6663H27.8C25.8 43.6663 25 42.813 25 40.693V39.3063C25 37.1863 25.8 36.333 27.8 36.333H42.2C44.2 36.333 45 37.1863 45 39.3063V40.693C45 42.813 44.2 43.6663 42.2 43.6663Z" stroke="#FEDC5A" stroke-width="2" stroke-linecap="round" stroke-linejoin="round"/>
<path d="M39.5333 32.3333H30.4666C28.4666 32.3333 27.6666 31.48 27.6666 29.36V27.9733C27.6666 25.8533 28.4666 25 30.4666 25H39.5333C41.5333 25 42.3333 25.8533 42.3333 27.9733V29.36C42.3333 31.48 41.5333 32.3333 39.5333 32.3333Z" stroke="#FEDC5A" stroke-width="2" stroke-linecap="round" stroke-linejoin="round"/>
<path d="M35 47.3328V44.1328" stroke="#FEDC5A" stroke-width="2" stroke-linecap="round" stroke-linejoin="round"/>
<path d="M35 35.3337V32.667" stroke="#FEDC5A" stroke-width="2" stroke-linecap="round" stroke-linejoin="round"/>
<path d="M35 20.667V24.2537" stroke="#FEDC5A" stroke-width="2" stroke-linecap="round" stroke-linejoin="round"/>
</svg>
