<svg width="69" height="69" viewBox="0 0 69 69" fill="none" xmlns="http://www.w3.org/2000/svg">
<path fill-rule="evenodd" clip-rule="evenodd" d="M34.5 69C53.5538 69 69 53.5538 69 34.5C69 15.4462 53.5538 0 34.5 0C15.4462 0 0 15.4462 0 34.5C0 53.5538 15.4462 69 34.5 69Z" fill="#5454D4" fill-opacity="0.1"/>
<path d="M28.0134 47.3337H41.9867C45.6667 47.3337 47.1334 45.0803 47.3067 42.3337L48 31.3203C48.1867 28.4403 45.8934 26.0003 43 26.0003C42.1867 26.0003 41.44 25.5337 41.0667 24.8137L40.1067 22.8803C39.4934 21.667 37.8934 20.667 36.5334 20.667H33.48C32.1067 20.667 30.5067 21.667 29.8934 22.8803L28.9334 24.8137C28.56 25.5337 27.8134 26.0003 27 26.0003C24.1067 26.0003 21.8134 28.4403 22 31.3203L22.6934 42.3337C22.8534 45.0803 24.3334 47.3337 28.0134 47.3337Z" stroke="#5454D4" stroke-width="2" stroke-linecap="round" stroke-linejoin="round"/>
<path d="M33 28.667H37" stroke="#5454D4" stroke-width="2" stroke-linecap="round" stroke-linejoin="round"/>
<path d="M35 41.9997C37.3866 41.9997 39.3333 40.053 39.3333 37.6663C39.3333 35.2797 37.3866 33.333 35 33.333C32.6133 33.333 30.6666 35.2797 30.6666 37.6663C30.6666 40.053 32.6133 41.9997 35 41.9997Z" stroke="#5454D4" stroke-width="2" stroke-linecap="round" stroke-linejoin="round"/>
</svg>
