<svg width="69" height="69" viewBox="0 0 69 69" fill="none" xmlns="http://www.w3.org/2000/svg">
<path fill-rule="evenodd" clip-rule="evenodd" d="M34.5 69C53.5538 69 69 53.5538 69 34.5C69 15.4462 53.5538 0 34.5 0C15.4462 0 0 15.4462 0 34.5C0 53.5538 15.4462 69 34.5 69Z" fill="#F04037" fill-opacity="0.1"/>
<path d="M48.3333 38.0003V30.0003C48.3333 23.3337 45.6666 20.667 39 20.667H31C24.3333 20.667 21.6666 23.3337 21.6666 30.0003V38.0003C21.6666 44.667 24.3333 47.3337 31 47.3337H39C45.6666 47.3337 48.3333 44.667 48.3333 38.0003Z" stroke="#F04037" stroke-width="2" stroke-linecap="round" stroke-linejoin="round"/>
<path d="M22.36 27.4805H47.64" stroke="#F04037" stroke-width="2" stroke-linecap="round" stroke-linejoin="round"/>
<path d="M30.36 20.8135V27.2935" stroke="#F04037" stroke-width="2" stroke-linecap="round" stroke-linejoin="round"/>
<path d="M39.64 20.8135V26.6935" stroke="#F04037" stroke-width="2" stroke-linecap="round" stroke-linejoin="round"/>
<path d="M32 37.2671V35.6671C32 33.6138 33.4533 32.7738 35.2267 33.8005L36.6133 34.6005L38 35.4005C39.7733 36.4271 39.7733 38.1071 38 39.1338L36.6133 39.9338L35.2267 40.7338C33.4533 41.7605 32 40.9205 32 38.8671V37.2671V37.2671Z" stroke="#F04037" stroke-width="2" stroke-miterlimit="10" stroke-linecap="round" stroke-linejoin="round"/>
</svg>
